<svg id="Layer_1" data-name="Layer 1" xmlns="http://www.w3.org/2000/svg" viewBox="0 0 543.61 405.64"><defs><style>.cls-1{fill:#f2634b;}.cls-2,.cls-4{fill:#fff;}.cls-3{fill:none;}.cls-3,.cls-4{stroke:#231f20;stroke-miterlimit:10;stroke-width:20px;}</style></defs><path class="cls-1" d="M474.51,529.41a22,22,0,0,1-15.59,37.67H162.08a22.08,22.08,0,0,1,0-44.16A31.42,31.42,0,0,0,193.5,491.5V359.43c0-52.26,37.85-96.11,87.49-105.49h59c49.64,9.38,87.49,53.23,87.49,105.49V491.5a31.42,31.42,0,0,0,31.42,31.42A22,22,0,0,1,474.51,529.41Z" transform="translate(-37.07 -210.19)"/><path class="cls-1" d="M344.25,253.94H340a106.63,106.63,0,0,0-19.86-1.86h-19.3A106.63,106.63,0,0,0,281,253.94h-4.24a33.75,33.75,0,0,1,67.5,0Z" transform="translate(-37.07 -210.19)"/><path class="cls-1" d="M276.75,572.08h67.5a33.75,33.75,0,0,1-67.5,0Z" transform="translate(-37.07 -210.19)"/><path class="cls-2" d="M340,253.94H281a106.63,106.63,0,0,1,19.86-1.86h19.3A106.63,106.63,0,0,1,340,253.94Z" transform="translate(-37.07 -210.19)"/><path class="cls-3" d="M276.75,253.94a33.75,33.75,0,0,1,67.5,0" transform="translate(-37.07 -210.19)"/><path class="cls-3" d="M281,253.94c-49.64,9.38-87.49,53.23-87.49,105.49V491.5a31.42,31.42,0,0,1-31.42,31.42,22.08,22.08,0,0,0,0,44.16H458.92a22.08,22.08,0,0,0,0-44.16A31.42,31.42,0,0,1,427.5,491.5V359.43c0-52.26-37.85-96.11-87.49-105.49a106.63,106.63,0,0,0-19.86-1.86h-19.3A106.63,106.63,0,0,0,281,253.94Z" transform="translate(-37.07 -210.19)"/><path class="cls-3" d="M344.25,572.08a33.75,33.75,0,0,1-67.5,0" transform="translate(-37.07 -210.19)"/><path class="cls-4" d="M149.54,456.61c-11.41-.19-20.38-17.48-20-38.61s9.87-38.12,21.28-37.94" transform="translate(-37.07 -210.19)"/><path class="cls-4" d="M116.14,473c-15.82-.26-28.24-24.91-27.75-55.06s13.72-54.39,29.55-54.13" transform="translate(-37.07 -210.19)"/><path class="cls-4" d="M74.65,485.24C58.82,485,46.49,454.88,47.09,418S61,351.44,76.84,351.7" transform="translate(-37.07 -210.19)"/><path class="cls-4" d="M468.21,372.33c11.41.19,20.38,17.48,20,38.62s-9.88,38.12-21.29,37.93" transform="translate(-37.07 -210.19)"/><path class="cls-4" d="M501.6,356c15.82.26,28.25,24.91,27.75,55.07s-13.72,54.38-29.54,54.12" transform="translate(-37.07 -210.19)"/><path class="cls-4" d="M543.1,343.7c15.82.26,28.16,30.36,27.55,67.24s-13.92,66.56-29.74,66.3" transform="translate(-37.07 -210.19)"/></svg>