<svg id="Layer_1" data-name="Layer 1" xmlns="http://www.w3.org/2000/svg" viewBox="0 0 361 405.64"><defs><style>.cls-1{fill:#fff;stroke:#231f20;stroke-miterlimit:10;stroke-width:20px;}</style></defs><path class="cls-1" d="M276.75,253.94a33.75,33.75,0,0,1,67.5,0" transform="translate(-130 -210.19)"/><path class="cls-1" d="M458.92,522.92h0A31.42,31.42,0,0,1,427.5,491.5V359.43c0-59-48.31-107.35-107.35-107.35h-19.3c-59,0-107.35,48.31-107.35,107.35V491.5a31.42,31.42,0,0,1-31.42,31.42h0A22.15,22.15,0,0,0,140,545h0a22.15,22.15,0,0,0,22.08,22.08H458.92A22.15,22.15,0,0,0,481,545h0A22.15,22.15,0,0,0,458.92,522.92Z" transform="translate(-130 -210.19)"/><path class="cls-1" d="M344.25,572.08a33.75,33.75,0,0,1-67.5,0" transform="translate(-130 -210.19)"/></svg>